<?xml version="1.0" encoding="UTF-8"?>
<svg width="128pt" height="128pt" version="1.1" viewBox="0 0 128 128" xmlns="http://www.w3.org/2000/svg">
 <g transform="translate(64, 64) scale(1.25) translate(-64, -64)" fill="#682079" >
  <path d="m111.21 91.445-10.66-10.66c-1.0391-1.0391-2.7305-1.0391-3.7695 0-1.0391 1.0391-1.0391 2.7305 0 3.7695l6.1094 6.1133h-6.8945c-7.9141 0-16.574-9.2812-25.148-19.754-.2031.25-.4063.5078-.6016.7539-.9375 1.1719-1.8789 2.3398-2.8125 3.5 9.3984 11.406 18.562 20.832 28.562 20.832h6.8945l-6.1133 6.1133c-1.0391 1.0391-1.0391 2.7305 0 3.7695.5195.5234 1.2031.7852 1.8867.7852.6836 0 1.3672-.2617 1.8867-.7773l10.66-10.66c.2461-.2461.4414-.543.582-.8711.2734-.6523.2734-1.3867 0-2.0391-.1367-.332-.3359-.6289-.582-.875z"/>
  <path d="m96 42.668h6.8945l-6.1133 6.1133c-1.0391 1.0391-1.0391 2.7305 0 3.7695.5195.5195 1.2031.7813 1.8867.7813.6836 0 1.3672-.2617 1.8867-.7773l10.66-10.66c.2461-.2461.4414-.543.582-.8711.2734-.6523.2734-1.3867 0-2.0391-.1328-.332-.332-.625-.582-.8711l-10.66-10.66c-1.0391-1.0391-2.7305-1.0391-3.7695 0-1.0391 1.0391-1.0391 2.7305 0 3.7695l6.1094 6.1094h-6.8945c-10 0-19.164 9.4258-28.559 20.836-1.1406 1.3867-2.2891 2.8008-3.4414 4.2305-.6914.8633-1.3867 1.7266-2.0859 2.6016-.4414.5547-.8906 1.1094-1.332 1.6641-1.1406 1.4258-2.2891 2.8438-3.4336 4.2461-8.5742 10.477-17.234 19.758-25.148 19.758h-16v5.332h16c10 0 19.164-9.4258 28.559-20.836 1.1406-1.3867 2.2891-2.8008 3.4414-4.2305.6914-.8633 1.3867-1.7266 2.0859-2.6016.4414-.5547.8906-1.1094 1.332-1.6641 1.1406-1.4258 2.2891-2.8438 3.4336-4.2461 8.5742-10.477 17.234-19.754 25.148-19.754z"/>
  <path d="m21.332 54.668c8.0898 0 14.668 6.5742 14.668 14.668 0 .7344.5977 1.332 1.332 1.332.7383 0 1.3359-.5977 1.3359-1.3359 0-8.0898 6.5742-14.668 14.668-14.668.7344 0 1.332-.5977 1.332-1.332s-.5977-1.332-1.3359-1.332c-8.0898 0-14.664-6.5742-14.664-14.668 0-.7344-.5977-1.332-1.332-1.332-.7383 0-1.3359.5977-1.3359 1.332 0 8.0898-6.5742 14.668-14.668 14.668-.7344 0-1.332.5977-1.332 1.332 0 .7383.5977 1.3359 1.332 1.3359z"/>
  <path d="m53.332 38.668c3.6758 0 6.668 2.9922 6.668 6.668 0 .7344.5977 1.332 1.332 1.332s1.332-.5977 1.332-1.332c0-3.6758 2.9922-6.668 6.668-6.668.7344 0 1.332-.5977 1.332-1.332.0039-.7383-.5938-1.3359-1.332-1.3359-3.6758 0-6.668-2.9922-6.668-6.668 0-.7344-.5977-1.332-1.332-1.332s-1.332.5977-1.332 1.332c0 3.6758-2.9922 6.668-6.668 6.668-.7344 0-1.332.5977-1.332 1.332 0 .7383.5977 1.3359 1.332 1.3359z"/>
 </g>
</svg>
